# xmcd
#
# Track frame offsets: 
#        150
#        13322
#        24065
#        34539
#        43783
#        52759
#        65539
#        78182
#        88409
#        99711
#        112511
#        123675
#        134906
#        144935
#        158055
#        175577
#        186772
#        198358
#        207821
#        220262
#        230833
#
# Disc length: 3325 seconds
#
# Revision: 0
# Processed by: cddbd v1.5.2PL0 Copyright (c) Steve Scherf et al.
# Submitted via: ExactAudioCopyFreeDBPlugin 1.0
#
DISCID=1e0cfb15
DTITLE=Various Artist - Memphis Soul Beat:  Booker T and The MGs Meet T
DTITLE=he Mar-Keys
DYEAR=2013
DGENRE=Rhythm and Blues
TTITLE0=The Mar-Keys - Last Night
TTITLE1=The Mar-Keys - Night Before
TTITLE2=The Mar-Keys - Morning After
TTITLE3=The Mar-Keys - Diana
TTITLE4=The Triumphs - Burnt Biscuits
TTITLE5=The Mar-Keys - About Noon
TTITLE6=The Mar-Keys - Sack-O-Woe
TTITLE7=The Mar-Keys - Foxy
TTITLE8=The Mar-Keys - One Degree North
TTITLE9=The Mar-Keys - Pop Eye Stroll
TTITLE10=The Mar-Keys - Po' Dunk
TTITLE11=The Mar-Keys - Whot's Happening
TTITLE12=The Mar-Keys - You Got It
TTITLE13=Booker T. and the M.G.'s - Green Onions
TTITLE14=Booker T. and the M.G.'s - Behave Yourself
TTITLE15=Booker T. and the M.G.'s - Jellybread
TTITLE16=The Mar-Keys - All Right, OK, You Win
TTITLE17=The Mar-Keys - Sticks and Stones
TTITLE18=The Mar-Keys - Misty
TTITLE19=The Mar-Keys - Hold It
TTITLE20=The Mar-Keys - Ebb Tide
EXTD=
EXTT0=
EXTT1=
EXTT2=
EXTT3=
EXTT4=
EXTT5=
EXTT6=
EXTT7=
EXTT8=
EXTT9=
EXTT10=
EXTT11=
EXTT12=
EXTT13=
EXTT14=
EXTT15=
EXTT16=
EXTT17=
EXTT18=
EXTT19=
EXTT20=
PLAYORDER=
